<svg preserveAspectRatio="none" overflow="visible" style="display: block;" width="87.507" height="20" viewBox="0 0 87.507 20" fill="none" xmlns="http://www.w3.org/2000/svg">
<g id="logo-isologo">
<g id="Vector">
<path d="M9.98796 14.5723H5.62096C5.52696 14.572 5.43305 14.5668 5.33959 14.5567C4.86936 14.51 4.64387 14.2961 4.61111 13.8197C4.56293 13.1488 4.61111 12.476 4.58798 11.8032C4.58798 11.6379 4.63424 11.6087 4.7807 11.6087C5.90618 11.6087 7.03166 11.6087 8.15713 11.6087C8.57919 11.6087 8.73529 11.4512 8.73529 11.0253V8.64902C8.73529 8.15509 8.60038 8.01702 8.11473 8.01702H4.76721C4.68435 8.01702 4.58799 8.04619 4.58991 7.8984C4.6034 7.27419 4.56293 6.64803 4.61111 6.02381C4.64773 5.54155 4.87899 5.30236 5.36079 5.2907C6.17599 5.27125 6.99118 5.2907 7.80638 5.2907V5.27708H10.0496C10.4486 5.27708 10.6162 5.1079 10.6162 4.70926V2.15406C10.6162 1.72625 10.5314 1.61346 10.1036 1.55901C9.52929 1.48641 8.95113 1.42548 8.36912 1.37622C7.67148 1.31205 6.97191 1.2926 6.27235 1.27899C5.22876 1.23171 4.18384 1.33584 3.16958 1.58818C2.02483 1.90321 1.10171 2.52353 0.554388 3.62417C0.1729 4.43782 -0.0151693 5.33006 0.00513916 6.22994C-0.00642395 8.63735 0.00513916 11.0428 0.00513916 13.4502C0.000884355 13.9396 0.0402288 14.4284 0.122698 14.9106C0.388649 16.4041 1.14025 17.5203 2.576 18.0939C3.15519 18.3166 3.76232 18.4567 4.37985 18.5101C5.20551 18.5772 6.0345 18.5928 6.86206 18.5567C7.96584 18.5476 9.06739 18.4553 10.1576 18.2806C10.516 18.2184 10.6124 18.0862 10.6124 17.7303V15.2082C10.6124 14.7259 10.4659 14.5781 9.9841 14.5781" fill="#FFEDEB"/>
<path d="M51.1529 2.08017C51.1529 1.67958 51.0045 1.52985 50.6037 1.52985H39.507C39.108 1.52985 38.9616 1.68152 38.9616 2.08406C38.9616 2.94746 38.9616 3.81086 38.9616 4.67426C38.9616 5.13124 39.0984 5.26931 39.5513 5.27125C40.5688 5.27125 41.5864 5.27125 42.6039 5.27125C42.7832 5.27125 42.8333 5.31403 42.8333 5.50266C42.8333 9.54743 42.8333 13.5922 42.8333 17.637C42.8333 17.6914 42.8333 17.7459 42.8333 17.8003C42.827 17.8726 42.8371 17.9454 42.8626 18.0133C42.8882 18.0812 42.9286 18.1423 42.9808 18.1923C43.0331 18.2422 43.0958 18.2795 43.1644 18.3016C43.2329 18.3236 43.3055 18.3297 43.3767 18.3195C44.5157 18.3195 45.6547 18.3195 46.7917 18.3195C47.1926 18.3195 47.3545 18.1581 47.3545 17.7536V11.6281C47.3545 9.57465 47.3545 7.5218 47.3545 5.4696C47.3545 5.31403 47.3891 5.27514 47.5472 5.27514C48.5647 5.27514 49.5823 5.27514 50.5998 5.27514C51.0161 5.27514 51.1626 5.12735 51.1626 4.7151V2.08017" fill="#FFEDEB"/>
<path d="M36.7661 1.526C35.3773 1.526 33.989 1.526 32.6015 1.526C32.4222 1.526 32.3856 1.57073 32.3856 1.74769C32.3856 4.4805 32.3856 7.21266 32.3856 9.94417C32.3856 12.6757 32.3856 15.4085 32.3856 18.1426C32.3856 18.3118 32.4261 18.3507 32.5938 18.3507C33.9871 18.3507 35.3824 18.3507 36.7777 18.3507C36.9164 18.3507 36.955 18.3176 36.955 18.1737C36.955 12.6874 36.955 7.20164 36.955 1.71657C36.955 1.56101 36.9126 1.52211 36.7623 1.52211" fill="#FFEDEB"/>
<path d="M28.1173 14.1309L25.8663 10.3467C25.8393 10.3817 25.8259 10.3953 25.8143 10.4128C24.7325 12.2096 23.6501 14.0058 22.567 15.8013C22.5402 15.8432 22.5282 15.893 22.5327 15.9427C22.5373 15.9924 22.5581 16.0391 22.592 16.0755C23.0661 16.8533 23.5364 17.6311 24.0124 18.409C24.2417 18.7843 24.4518 19.1713 24.7081 19.5291C24.7822 19.6458 24.8856 19.7408 25.0078 19.8043C25.1299 19.8678 25.2665 19.8976 25.4038 19.8908C27.1498 19.8752 28.8939 19.8908 30.638 19.8908C30.746 19.8908 30.8539 19.8908 30.9618 19.8908C31.0023 19.8903 31.0423 19.8817 31.0795 19.8656C31.1167 19.8495 31.1504 19.8261 31.1787 19.7969C31.207 19.7676 31.2293 19.7331 31.2443 19.6951C31.2593 19.6572 31.2668 19.6166 31.2663 19.5757C31.2637 19.4256 31.213 19.2803 31.1218 19.1615L28.1173 14.125" fill="#FFEDEB"/>
<path d="M23.6592 5.89163L25.8389 9.54942C25.8793 9.48525 25.9044 9.44831 25.9275 9.40941L31.1425 0.658718C31.2253 0.520652 31.3082 0.386475 31.2099 0.225073C31.1116 0.0636716 30.9594 0.0695048 30.7994 0.0695048C29.0226 0.0695048 27.5482 0.0695048 25.465 0.0695048H25.2857C25.2857 0.0695048 25.0044 0.0695069 24.8868 0.141457C24.7798 0.224967 24.6923 0.331182 24.6305 0.452591C23.9457 1.58046 23.2609 2.70833 22.5761 3.83619C22.5462 3.87931 22.531 3.93106 22.5327 3.98366C22.5345 4.03626 22.5531 4.08687 22.5858 4.12788C22.9481 4.71126 23.3027 5.30826 23.6573 5.89941" fill="#FFEDEB"/>
<path d="M14.8234 14.6054C15.7395 13.086 16.6626 11.5718 17.5928 10.0628C17.625 10.0219 17.6425 9.97116 17.6425 9.91891C17.6425 9.86665 17.625 9.81593 17.5928 9.77501C16.6485 8.26341 15.7087 6.75116 14.7733 5.23826C14.7362 5.16906 14.6801 5.11211 14.6117 5.07418C14.5434 5.03625 14.4657 5.01896 14.3879 5.02436C13.9292 5.02436 13.4705 5.02436 13.0119 5.02436H11.6185C11.5472 5.02436 11.4624 5.00102 11.4258 5.08464C11.3892 5.16826 11.4547 5.20909 11.4875 5.26354C12.3142 6.65393 13.1294 8.05209 13.9928 9.42692C14.1029 9.56686 14.1628 9.74026 14.1628 9.91891C14.1628 10.0976 14.1029 10.271 13.9928 10.4109C13.1449 11.7721 12.3393 13.1781 11.5202 14.5646C11.3506 14.8485 11.4142 14.9535 11.7399 14.9535C12.5609 14.9535 13.3838 14.9379 14.2048 14.9535C14.3338 14.9649 14.4632 14.9364 14.5758 14.8717C14.6883 14.8071 14.7788 14.7095 14.835 14.5918" fill="#F52929"/>
<path d="M25.2394 9.77303C23.663 7.16468 22.0898 4.55633 20.5198 1.94797C20.2018 1.42098 19.9069 0.878443 19.5562 0.372847C19.4825 0.259617 19.3808 0.167759 19.2611 0.106367C19.1415 0.0449748 19.008 0.0161759 18.8739 0.0228189C17.1395 0.0325419 15.405 0.0228189 13.6705 0.0228189C13.557 0.0272056 13.4434 0.0200391 13.3314 0.00142822C13.2845 -0.00313283 13.2372 0.00326484 13.1932 0.0201277C13.1492 0.0369905 13.1096 0.0638647 13.0775 0.0986611C13.0455 0.133457 13.0218 0.175241 13.0083 0.220768C12.9948 0.266296 12.992 0.314342 12.9999 0.361177C13.0208 0.447077 13.0589 0.527789 13.1117 0.598418C14.9271 3.66311 16.7431 6.72585 18.5598 9.78665C18.594 9.83078 18.6126 9.88521 18.6126 9.94124C18.6126 9.99728 18.594 10.0517 18.5598 10.0958C18.2592 10.5859 17.9701 11.0837 17.6772 11.5796L13.1194 19.2918C13.0593 19.3612 13.0207 19.4468 13.0083 19.538C12.996 19.6293 13.0105 19.7222 13.05 19.8052C13.1502 19.9841 13.3217 19.9783 13.4932 19.9783H16.1913C16.9988 19.9783 17.8101 19.9394 18.6157 19.99C18.8556 20.0229 19.0995 19.9743 19.3089 19.8517C19.5183 19.7292 19.6812 19.5397 19.772 19.3132C19.7868 19.2824 19.8036 19.2525 19.8221 19.2238C21.6131 16.2019 23.4221 13.1903 25.2491 10.1892C25.2939 10.1304 25.3182 10.0582 25.3182 9.98403C25.3182 9.90982 25.2939 9.83768 25.2491 9.77887M23.4895 10.1425C22.5247 11.6982 21.5784 13.2616 20.6508 14.8329C20.6095 14.9142 20.5455 14.9814 20.4668 15.0264C20.388 15.0713 20.2978 15.0919 20.2075 15.0857C19.3711 15.0857 18.5367 15.0857 17.7022 15.0857C17.5808 15.0857 17.4806 15.0857 17.4131 14.9534C17.3853 14.8995 17.3738 14.8385 17.38 14.7781C17.3861 14.7176 17.4097 14.6602 17.4478 14.6131C18.3369 13.1184 19.2253 11.623 20.1131 10.127C20.1528 10.0744 20.1743 10.0102 20.1743 9.94416C20.1743 9.87811 20.1528 9.81388 20.1131 9.76137C19.2138 8.28217 18.3183 6.79845 17.4266 5.31018C17.3919 5.25573 17.3226 5.20128 17.363 5.13128C17.4035 5.06127 17.4864 5.09628 17.5557 5.09628C18.0125 5.09628 18.4712 5.09628 18.9298 5.09628C19.3885 5.09628 19.8472 5.09628 20.3039 5.09628C20.3773 5.08983 20.4509 5.10471 20.5161 5.13918C20.5814 5.17364 20.6355 5.22623 20.672 5.29074C21.6125 6.81919 22.5536 8.34635 23.4953 9.87221C23.5261 9.91114 23.5429 9.95949 23.5429 10.0093C23.5429 10.0591 23.5261 10.1075 23.4953 10.1464" fill="#F52929"/>
<path d="M86.8864 9.58048C86.555 9.58048 86.2254 9.58048 85.8959 9.58048C85.8434 9.5754 85.7904 9.58125 85.7402 9.59765C85.6901 9.61405 85.6438 9.64067 85.6042 9.67584C85.5647 9.71102 85.5327 9.75402 85.5102 9.80217C85.4878 9.85032 85.4754 9.90261 85.4738 9.95579C85.4641 10.0364 85.4603 10.1177 85.4622 10.1989C85.4622 12.2303 85.4622 14.2631 85.4622 16.2971C85.4622 16.478 85.4083 16.5246 85.2445 16.5363C84.3475 16.6193 83.4471 16.657 82.5464 16.6491C81.1666 16.6083 80.1567 15.9588 79.5304 14.7045C79.1212 13.8562 78.9071 12.9255 78.904 11.9821C78.8732 10.8153 78.8867 9.63104 78.8867 8.45456C78.8688 7.59136 78.9779 6.73026 79.2105 5.89936C79.7289 4.14922 80.9815 3.21192 82.7815 3.21192C83.8395 3.21192 84.9014 3.21192 85.9537 3.27415C86.3391 3.29554 86.7053 3.32471 87.0811 3.34804C87.3991 3.36749 87.4665 3.30527 87.4665 2.9883C87.4665 2.67133 87.4665 2.36213 87.4665 2.04905C87.4714 2.00312 87.4666 1.95667 87.4526 1.9127C87.4385 1.86873 87.4155 1.82822 87.385 1.79377C87.3545 1.75932 87.3172 1.73171 87.2755 1.71271C87.2337 1.69372 87.1885 1.68375 87.1427 1.68347C86.3719 1.57652 85.601 1.46373 84.8166 1.42289C83.7201 1.36456 82.6235 1.27122 81.5404 1.48123C79.8965 1.7982 78.615 2.64799 77.792 4.1395C77.2011 5.25981 76.8902 6.50875 76.8863 7.77784C76.8516 9.13906 76.8651 10.51 76.8766 11.8751C76.8793 12.8415 77.0455 13.8004 77.3681 14.7103C78.0002 16.4605 79.1565 17.6836 80.9526 18.2301C81.7235 18.4673 82.5271 18.477 83.3327 18.4634C84.551 18.4542 85.767 18.3561 86.9712 18.1698C87.3914 18.0998 87.507 17.9753 87.507 17.5339V10.2086C87.507 9.73411 87.3586 9.58048 86.898 9.58048" fill="#F52929"/>
<path d="M61.9606 16.5985H57.8576C57.5075 16.6093 57.1571 16.5937 56.8092 16.5519C56.6224 16.5282 56.4371 16.4938 56.2542 16.4488C55.4949 16.2446 55.1384 15.7779 55.0728 14.9476C55.0324 14.4381 55.042 13.9286 55.042 13.4191C55.042 9.63233 55.042 5.84556 55.042 2.05877C55.042 1.65624 54.8801 1.49679 54.4773 1.49679C54.1806 1.49679 53.8857 1.49679 53.5889 1.49679C53.1803 1.49679 52.9799 1.70486 52.9799 2.10933V14.3467C52.9781 14.7748 53.0182 15.2021 53.0994 15.6223C53.3615 16.9583 54.1054 17.8625 55.412 18.2534C55.9766 18.4149 56.5598 18.5005 57.1465 18.5081C58.0234 18.5276 58.8983 18.5237 59.7732 18.4867C60.5269 18.4745 61.2792 18.4174 62.0261 18.3156C62.267 18.2767 62.348 18.1814 62.348 17.9267C62.348 17.6136 62.348 17.3005 62.348 16.9894C62.348 16.6783 62.2709 16.5908 61.9625 16.5908" fill="#F52929"/>
<path d="M75.7336 15.9529C74.5349 11.6748 73.3375 7.40058 72.1413 3.13024C71.8349 2.04126 71.1642 1.48511 70.0638 1.3976C68.8073 1.29843 67.9035 1.90709 67.5797 3.06801L65.0184 12.2076C64.4968 14.0667 63.9739 15.9257 63.4497 17.7847C63.3495 18.1348 63.4748 18.3292 63.8352 18.3351C64.2456 18.3351 64.6561 18.3351 65.0686 18.3351C65.1741 18.344 65.279 18.3116 65.3615 18.2446C65.444 18.1777 65.4978 18.0812 65.5118 17.9753C65.9685 16.3166 66.4272 14.6559 66.8763 12.9952C66.8792 12.9632 66.8887 12.9322 66.9042 12.9041C66.9197 12.8761 66.9408 12.8515 66.9662 12.8322C66.9915 12.8128 67.0206 12.7989 67.0516 12.7915C67.0826 12.7841 67.1148 12.7833 67.1461 12.7891C68.9319 12.7968 70.7178 12.7968 72.5036 12.7891C72.5363 12.783 72.5699 12.7838 72.6022 12.7914C72.6346 12.7991 72.665 12.8134 72.6917 12.8335C72.7183 12.8536 72.7405 12.879 72.7569 12.9082C72.7733 12.9373 72.7835 12.9696 72.7869 13.003C73.2437 14.6559 73.7101 16.3088 74.1745 17.9559C74.1785 18.015 74.1948 18.0725 74.2222 18.1249C74.2496 18.1773 74.2876 18.2233 74.3337 18.2599C74.3799 18.2966 74.4331 18.323 74.49 18.3377C74.5468 18.3523 74.6061 18.3547 74.664 18.3448H75.9456C76.0015 18.3451 76.0567 18.332 76.1066 18.3066C76.1565 18.2812 76.1997 18.2442 76.2327 18.1986C76.2656 18.153 76.2874 18.1002 76.2961 18.0444C76.3048 17.9887 76.3003 17.9317 76.2828 17.8781C76.1017 17.2402 75.9186 16.6005 75.7394 15.9607M72.0372 11.0448H69.7882C69.0328 11.0448 68.2792 11.0448 67.5238 11.0448C67.3773 11.0448 67.3311 11.0331 67.3735 10.862C68.0428 8.45973 68.7084 6.05621 69.37 3.65139C69.4259 3.44527 69.5126 3.26247 69.7555 3.22164C69.8103 3.20958 69.8671 3.20912 69.9221 3.22029C69.9772 3.23146 70.0294 3.25402 70.0753 3.28654C70.1213 3.31906 70.1601 3.36083 70.1893 3.40924C70.2185 3.45764 70.2375 3.51162 70.245 3.56777C70.3972 4.10254 70.5398 4.63925 70.6863 5.17596C71.2002 7.05314 71.7103 8.92968 72.2165 10.8056C72.2801 11.0428 72.282 11.0428 72.0411 11.0428" fill="#F52929"/>
</g>
</g>
</svg>
